<mxfile host="app.diagrams.net" modified="2023-05-24T16:41:44.921Z" agent="Mozilla/5.0 (Windows NT 10.0; Win64; x64) AppleWebKit/537.36 (KHTML, like Gecko) Chrome/113.0.0.0 Safari/537.36" etag="Rz-JLSaeVcjxe5KnBmf_" version="21.3.3" type="device">
  <diagram id="SJKQbwATTXSdq_l_r0Jc" name="Страница 1">
    <mxGraphModel dx="1018" dy="524" grid="0" gridSize="10" guides="1" tooltips="1" connect="1" arrows="1" fold="1" page="1" pageScale="1" pageWidth="1654" pageHeight="1169" math="0" shadow="0">
      <root>
        <mxCell id="0" />
        <mxCell id="1" parent="0" />
        <mxCell id="NCQksfRdaHrPETZf62UO-32" value="&lt;font style=&quot;font-size: 16px;&quot;&gt;Docker Network&lt;/font&gt;" style="verticalAlign=top;align=left;spacingTop=8;spacingLeft=2;spacingRight=12;shape=cube;size=10;direction=south;fontStyle=4;html=1;fontFamily=Times New Roman;fontSize=14;" parent="1" vertex="1">
          <mxGeometry x="136" y="177" width="954" height="274" as="geometry" />
        </mxCell>
        <mxCell id="NCQksfRdaHrPETZf62UO-1" value="&lt;font style=&quot;font-size: 16px;&quot;&gt;Database (docker container)&lt;/font&gt;" style="verticalAlign=top;align=left;spacingTop=8;spacingLeft=2;spacingRight=12;shape=cube;size=10;direction=south;fontStyle=4;html=1;fontFamily=Times New Roman;fontSize=14;" parent="1" vertex="1">
          <mxGeometry x="177" y="247" width="239" height="182" as="geometry" />
        </mxCell>
        <mxCell id="NCQksfRdaHrPETZf62UO-4" value="MS SQL Server 2022" style="shape=module;align=left;spacingLeft=20;align=center;verticalAlign=top;fontFamily=Times New Roman;fontSize=16;" parent="1" vertex="1">
          <mxGeometry x="208" y="305" width="177" height="84" as="geometry" />
        </mxCell>
        <mxCell id="NCQksfRdaHrPETZf62UO-5" value="Backend (docker container)" style="verticalAlign=top;align=left;spacingTop=8;spacingLeft=2;spacingRight=12;shape=cube;size=10;direction=south;fontStyle=4;html=1;fontFamily=Times New Roman;fontSize=16;" parent="1" vertex="1">
          <mxGeometry x="485" y="247" width="239" height="182" as="geometry" />
        </mxCell>
        <mxCell id="NCQksfRdaHrPETZf62UO-6" value="ASP.NET 6" style="shape=module;align=left;spacingLeft=20;align=center;verticalAlign=top;fontFamily=Times New Roman;fontSize=16;" parent="1" vertex="1">
          <mxGeometry x="516" y="307" width="177" height="84" as="geometry" />
        </mxCell>
        <mxCell id="NCQksfRdaHrPETZf62UO-7" value="Front-end (docker container)" style="verticalAlign=top;align=left;spacingTop=8;spacingLeft=2;spacingRight=12;shape=cube;size=10;direction=south;fontStyle=4;html=1;fontFamily=Times New Roman;fontSize=16;" parent="1" vertex="1">
          <mxGeometry x="806" y="247" width="239" height="182" as="geometry" />
        </mxCell>
        <mxCell id="NCQksfRdaHrPETZf62UO-8" value="Angular 15" style="shape=module;align=left;spacingLeft=20;align=center;verticalAlign=top;fontFamily=Times New Roman;fontSize=16;" parent="1" vertex="1">
          <mxGeometry x="839.5" y="307" width="177" height="84" as="geometry" />
        </mxCell>
        <mxCell id="NCQksfRdaHrPETZf62UO-9" value="User workstation" style="verticalAlign=top;align=left;spacingTop=8;spacingLeft=2;spacingRight=12;shape=cube;size=10;direction=south;fontStyle=4;html=1;fontFamily=Times New Roman;fontSize=16;" parent="1" vertex="1">
          <mxGeometry x="485" y="511" width="239" height="182" as="geometry" />
        </mxCell>
        <mxCell id="NCQksfRdaHrPETZf62UO-11" value="port: 1435" style="text;align=center;fontStyle=0;verticalAlign=middle;spacingLeft=3;spacingRight=3;strokeColor=none;rotatable=0;points=[[0,0.5],[1,0.5]];portConstraint=eastwest;fontFamily=Times New Roman;fontSize=16;" parent="1" vertex="1">
          <mxGeometry x="176" y="403" width="76" height="26" as="geometry" />
        </mxCell>
        <mxCell id="NCQksfRdaHrPETZf62UO-12" value="port: 6578" style="text;align=center;fontStyle=0;verticalAlign=middle;spacingLeft=3;spacingRight=3;strokeColor=none;rotatable=0;points=[[0,0.5],[1,0.5]];portConstraint=eastwest;fontFamily=Times New Roman;fontSize=16;" parent="1" vertex="1">
          <mxGeometry x="485" y="403" width="74" height="26" as="geometry" />
        </mxCell>
        <mxCell id="NCQksfRdaHrPETZf62UO-13" value="port: 4014" style="text;align=center;fontStyle=0;verticalAlign=middle;spacingLeft=3;spacingRight=3;strokeColor=none;rotatable=0;points=[[0,0.5],[1,0.5]];portConstraint=eastwest;fontFamily=Times New Roman;fontSize=16;" parent="1" vertex="1">
          <mxGeometry x="806" y="403" width="73" height="26" as="geometry" />
        </mxCell>
        <mxCell id="NCQksfRdaHrPETZf62UO-14" value="port: 1433" style="text;align=center;fontStyle=0;verticalAlign=middle;spacingLeft=3;spacingRight=3;strokeColor=none;rotatable=0;points=[[0,0.5],[1,0.5]];portConstraint=eastwest;fontFamily=Times New Roman;fontSize=16;" parent="1" vertex="1">
          <mxGeometry x="312" y="363" width="73" height="26" as="geometry" />
        </mxCell>
        <mxCell id="NCQksfRdaHrPETZf62UO-15" value="port: 80" style="text;align=center;fontStyle=0;verticalAlign=middle;spacingLeft=3;spacingRight=3;strokeColor=none;rotatable=0;points=[[0,0.5],[1,0.5]];portConstraint=eastwest;fontFamily=Times New Roman;fontSize=16;" parent="1" vertex="1">
          <mxGeometry x="638" y="365" width="54" height="26" as="geometry" />
        </mxCell>
        <mxCell id="NCQksfRdaHrPETZf62UO-16" value="port: 4200" style="text;align=center;fontStyle=0;verticalAlign=middle;spacingLeft=3;spacingRight=3;strokeColor=none;rotatable=0;points=[[0,0.5],[1,0.5]];portConstraint=eastwest;fontFamily=Times New Roman;fontSize=16;" parent="1" vertex="1">
          <mxGeometry x="946" y="365" width="70.5" height="26" as="geometry" />
        </mxCell>
        <mxCell id="NCQksfRdaHrPETZf62UO-20" value="" style="endArrow=none;html=1;rounded=0;entryX=1.001;entryY=0.148;entryDx=0;entryDy=0;entryPerimeter=0;edgeStyle=orthogonalEdgeStyle;exitX=0.661;exitY=0.001;exitDx=0;exitDy=0;exitPerimeter=0;" parent="1" source="NCQksfRdaHrPETZf62UO-9" target="NCQksfRdaHrPETZf62UO-32" edge="1">
          <mxGeometry relative="1" as="geometry">
            <mxPoint x="717" y="582" as="sourcePoint" />
            <mxPoint x="896" y="547" as="targetPoint" />
          </mxGeometry>
        </mxCell>
        <mxCell id="NCQksfRdaHrPETZf62UO-22" value="TCP" style="text;html=1;strokeColor=none;fillColor=none;align=center;verticalAlign=middle;whiteSpace=wrap;rounded=0;fontFamily=Times New Roman;fontSize=16;" parent="1" vertex="1">
          <mxGeometry x="844" y="612" width="38" height="21" as="geometry" />
        </mxCell>
        <mxCell id="NCQksfRdaHrPETZf62UO-25" value="" style="endArrow=none;html=1;rounded=0;exitX=-0.002;exitY=0.299;exitDx=0;exitDy=0;exitPerimeter=0;entryX=1;entryY=0.299;entryDx=0;entryDy=0;entryPerimeter=0;" parent="1" source="NCQksfRdaHrPETZf62UO-9" target="NCQksfRdaHrPETZf62UO-5" edge="1">
          <mxGeometry width="50" height="50" relative="1" as="geometry">
            <mxPoint x="596" y="437" as="sourcePoint" />
            <mxPoint x="646" y="387" as="targetPoint" />
          </mxGeometry>
        </mxCell>
        <mxCell id="NCQksfRdaHrPETZf62UO-28" value="" style="endArrow=none;html=1;rounded=0;exitX=0;exitY=0;exitDx=86;exitDy=0;exitPerimeter=0;entryX=0.47;entryY=1;entryDx=0;entryDy=0;entryPerimeter=0;" parent="1" source="NCQksfRdaHrPETZf62UO-5" target="NCQksfRdaHrPETZf62UO-7" edge="1">
          <mxGeometry width="50" height="50" relative="1" as="geometry">
            <mxPoint x="696" y="327" as="sourcePoint" />
            <mxPoint x="806" y="298" as="targetPoint" />
          </mxGeometry>
        </mxCell>
        <mxCell id="NCQksfRdaHrPETZf62UO-30" value="" style="endArrow=none;html=1;rounded=0;entryX=0.319;entryY=0;entryDx=0;entryDy=0;entryPerimeter=0;exitX=0.319;exitY=1.002;exitDx=0;exitDy=0;exitPerimeter=0;" parent="1" source="NCQksfRdaHrPETZf62UO-5" target="NCQksfRdaHrPETZf62UO-1" edge="1">
          <mxGeometry width="50" height="50" relative="1" as="geometry">
            <mxPoint x="476" y="367" as="sourcePoint" />
            <mxPoint x="776" y="277" as="targetPoint" />
          </mxGeometry>
        </mxCell>
        <mxCell id="W0lRrHo5N9oozSXiTQE4-1" value="Browser (Any)" style="verticalAlign=top;align=left;spacingTop=8;spacingLeft=2;spacingRight=12;shape=cube;size=10;direction=south;fontStyle=4;html=1;whiteSpace=wrap;fontFamily=Times New Roman;fontSize=16;" parent="1" vertex="1">
          <mxGeometry x="537.25" y="562" width="134.5" height="91" as="geometry" />
        </mxCell>
        <mxCell id="W0lRrHo5N9oozSXiTQE4-2" value="(OS: Any)" style="text;align=center;fontStyle=0;verticalAlign=middle;spacingLeft=3;spacingRight=3;strokeColor=none;rotatable=0;points=[[0,0.5],[1,0.5]];portConstraint=eastwest;fontFamily=Times New Roman;fontSize=16;" parent="1" vertex="1">
          <mxGeometry x="642" y="403" width="70" height="26" as="geometry" />
        </mxCell>
        <mxCell id="W0lRrHo5N9oozSXiTQE4-3" value="(OS: Any)" style="text;align=center;fontStyle=0;verticalAlign=middle;spacingLeft=3;spacingRight=3;strokeColor=none;rotatable=0;points=[[0,0.5],[1,0.5]];portConstraint=eastwest;fontFamily=Times New Roman;fontSize=16;" parent="1" vertex="1">
          <mxGeometry x="964" y="403" width="70" height="26" as="geometry" />
        </mxCell>
        <mxCell id="W0lRrHo5N9oozSXiTQE4-4" value="(OS: Any)" style="text;align=center;fontStyle=0;verticalAlign=middle;spacingLeft=3;spacingRight=3;strokeColor=none;rotatable=0;points=[[0,0.5],[1,0.5]];portConstraint=eastwest;fontFamily=Times New Roman;fontSize=16;" parent="1" vertex="1">
          <mxGeometry x="331" y="403" width="76" height="26" as="geometry" />
        </mxCell>
        <mxCell id="dSqrFrBYC_2CAn7mRIEX-1" value="(OS: Any)" style="text;align=center;fontStyle=0;verticalAlign=middle;spacingLeft=3;spacingRight=3;strokeColor=none;rotatable=0;points=[[0,0.5],[1,0.5]];portConstraint=eastwest;fontFamily=Times New Roman;fontSize=16;" parent="1" vertex="1">
          <mxGeometry x="641" y="667" width="71" height="26" as="geometry" />
        </mxCell>
        <mxCell id="dSqrFrBYC_2CAn7mRIEX-5" value="" style="endArrow=classic;dashed=1;endFill=1;endSize=12;html=1;rounded=0;entryX=0.5;entryY=1;entryDx=0;entryDy=0;exitX=1.002;exitY=0.17;exitDx=0;exitDy=0;exitPerimeter=0;" parent="1" source="NCQksfRdaHrPETZf62UO-32" target="NCQksfRdaHrPETZf62UO-8" edge="1">
          <mxGeometry width="160" relative="1" as="geometry">
            <mxPoint x="928" y="437" as="sourcePoint" />
            <mxPoint x="906" y="377" as="targetPoint" />
          </mxGeometry>
        </mxCell>
        <mxCell id="dSqrFrBYC_2CAn7mRIEX-7" value="" style="rounded=0;orthogonalLoop=1;jettySize=auto;html=1;endArrow=none;endFill=0;sketch=0;sourcePerimeterSpacing=0;targetPerimeterSpacing=0;exitX=0.225;exitY=0;exitDx=0;exitDy=0;exitPerimeter=0;edgeStyle=orthogonalEdgeStyle;" parent="1" source="W0lRrHo5N9oozSXiTQE4-1" edge="1">
          <mxGeometry relative="1" as="geometry">
            <mxPoint x="668" y="545" as="sourcePoint" />
            <mxPoint x="928" y="475" as="targetPoint" />
          </mxGeometry>
        </mxCell>
        <mxCell id="dSqrFrBYC_2CAn7mRIEX-8" value="" style="rounded=0;orthogonalLoop=1;jettySize=auto;html=1;endArrow=none;endFill=0;sketch=0;sourcePerimeterSpacing=0;targetPerimeterSpacing=0;" parent="1" target="dSqrFrBYC_2CAn7mRIEX-10" edge="1">
          <mxGeometry relative="1" as="geometry">
            <mxPoint x="928" y="476" as="sourcePoint" />
          </mxGeometry>
        </mxCell>
        <mxCell id="dSqrFrBYC_2CAn7mRIEX-9" value="" style="rounded=0;orthogonalLoop=1;jettySize=auto;html=1;endArrow=halfCircle;endFill=0;entryX=0.5;entryY=0.5;endSize=6;strokeWidth=1;sketch=0;entryDx=0;entryDy=0;" parent="1" target="dSqrFrBYC_2CAn7mRIEX-10" edge="1">
          <mxGeometry relative="1" as="geometry">
            <mxPoint x="928" y="451" as="sourcePoint" />
          </mxGeometry>
        </mxCell>
        <mxCell id="dSqrFrBYC_2CAn7mRIEX-10" value="" style="ellipse;whiteSpace=wrap;html=1;align=center;aspect=fixed;resizable=0;points=[];outlineConnect=0;sketch=0;flipV=1;" parent="1" vertex="1">
          <mxGeometry x="923" y="462" width="10" height="10" as="geometry" />
        </mxCell>
        <mxCell id="dSqrFrBYC_2CAn7mRIEX-11" value="HTTP" style="text;html=1;strokeColor=none;fillColor=none;align=center;verticalAlign=middle;whiteSpace=wrap;rounded=0;fontFamily=Times New Roman;fontSize=16;" parent="1" vertex="1">
          <mxGeometry x="803" y="564" width="41" height="19" as="geometry" />
        </mxCell>
        <mxCell id="dSqrFrBYC_2CAn7mRIEX-12" value="TCP" style="text;html=1;strokeColor=none;fillColor=none;align=center;verticalAlign=middle;whiteSpace=wrap;rounded=0;fontFamily=Times New Roman;fontSize=16;" parent="1" vertex="1">
          <mxGeometry x="650" y="460" width="42" height="24" as="geometry" />
        </mxCell>
        <mxCell id="dSqrFrBYC_2CAn7mRIEX-13" value="" style="rounded=0;orthogonalLoop=1;jettySize=auto;html=1;endArrow=halfCircle;endFill=0;entryX=0.5;entryY=0.5;endSize=6;strokeWidth=1;sketch=0;entryDx=0;entryDy=0;exitX=0;exitY=0;exitDx=274;exitDy=482;exitPerimeter=0;" parent="1" source="NCQksfRdaHrPETZf62UO-32" target="dSqrFrBYC_2CAn7mRIEX-14" edge="1">
          <mxGeometry relative="1" as="geometry">
            <mxPoint x="606" y="437" as="sourcePoint" />
          </mxGeometry>
        </mxCell>
        <mxCell id="dSqrFrBYC_2CAn7mRIEX-14" value="" style="ellipse;whiteSpace=wrap;html=1;align=center;aspect=fixed;resizable=0;points=[];outlineConnect=0;sketch=0;flipV=1;" parent="1" vertex="1">
          <mxGeometry x="603" y="464" width="10" height="10" as="geometry" />
        </mxCell>
        <mxCell id="dSqrFrBYC_2CAn7mRIEX-15" value="" style="endArrow=none;html=1;rounded=0;exitX=0;exitY=0.474;exitDx=0;exitDy=0;exitPerimeter=0;" parent="1" source="W0lRrHo5N9oozSXiTQE4-1" target="dSqrFrBYC_2CAn7mRIEX-14" edge="1">
          <mxGeometry width="50" height="50" relative="1" as="geometry">
            <mxPoint x="606" y="524" as="sourcePoint" />
            <mxPoint x="605.9" y="468" as="targetPoint" />
          </mxGeometry>
        </mxCell>
        <mxCell id="dSqrFrBYC_2CAn7mRIEX-16" value="" style="endArrow=classic;dashed=1;endFill=1;endSize=12;html=1;rounded=0;exitX=0;exitY=0;exitDx=274;exitDy=482;exitPerimeter=0;entryX=0.52;entryY=0.996;entryDx=0;entryDy=0;entryPerimeter=0;" parent="1" source="NCQksfRdaHrPETZf62UO-32" target="NCQksfRdaHrPETZf62UO-6" edge="1">
          <mxGeometry width="160" relative="1" as="geometry">
            <mxPoint x="605.6600000000001" y="429" as="sourcePoint" />
            <mxPoint x="606" y="380" as="targetPoint" />
          </mxGeometry>
        </mxCell>
        <mxCell id="dSqrFrBYC_2CAn7mRIEX-17" value="HTTP" style="text;html=1;strokeColor=none;fillColor=none;align=center;verticalAlign=middle;whiteSpace=wrap;rounded=0;fontFamily=Times New Roman;fontSize=16;" parent="1" vertex="1">
          <mxGeometry x="565" y="480" width="41" height="20" as="geometry" />
        </mxCell>
        <mxCell id="dSqrFrBYC_2CAn7mRIEX-18" value="TCP" style="text;html=1;strokeColor=none;fillColor=none;align=center;verticalAlign=middle;whiteSpace=wrap;rounded=0;fontFamily=Times New Roman;fontSize=16;" parent="1" vertex="1">
          <mxGeometry x="752" y="314" width="42" height="21" as="geometry" />
        </mxCell>
        <mxCell id="dSqrFrBYC_2CAn7mRIEX-19" value="" style="rounded=0;orthogonalLoop=1;jettySize=auto;html=1;endArrow=halfCircle;endFill=0;entryX=0.5;entryY=0.5;endSize=6;strokeWidth=1;sketch=0;entryDx=0;entryDy=0;exitX=0.677;exitY=0;exitDx=0;exitDy=0;exitPerimeter=0;" parent="1" source="NCQksfRdaHrPETZf62UO-5" target="dSqrFrBYC_2CAn7mRIEX-20" edge="1">
          <mxGeometry relative="1" as="geometry">
            <mxPoint x="747" y="334" as="sourcePoint" />
          </mxGeometry>
        </mxCell>
        <mxCell id="dSqrFrBYC_2CAn7mRIEX-20" value="" style="ellipse;whiteSpace=wrap;html=1;align=center;aspect=fixed;resizable=0;points=[];outlineConnect=0;sketch=0;flipV=1;" parent="1" vertex="1">
          <mxGeometry x="742" y="365" width="10" height="10" as="geometry" />
        </mxCell>
        <mxCell id="dSqrFrBYC_2CAn7mRIEX-21" value="" style="endArrow=none;html=1;rounded=0;entryX=0;entryY=0.75;entryDx=10;entryDy=0;entryPerimeter=0;" parent="1" source="dSqrFrBYC_2CAn7mRIEX-20" target="NCQksfRdaHrPETZf62UO-8" edge="1">
          <mxGeometry width="50" height="50" relative="1" as="geometry">
            <mxPoint x="756" y="351" as="sourcePoint" />
            <mxPoint x="846" y="351" as="targetPoint" />
          </mxGeometry>
        </mxCell>
        <mxCell id="dSqrFrBYC_2CAn7mRIEX-22" value="" style="endArrow=classic;dashed=1;endFill=1;endSize=12;html=1;rounded=0;exitX=0.677;exitY=-0.001;exitDx=0;exitDy=0;exitPerimeter=0;entryX=1;entryY=0.75;entryDx=0;entryDy=0;" parent="1" source="NCQksfRdaHrPETZf62UO-5" target="NCQksfRdaHrPETZf62UO-6" edge="1">
          <mxGeometry width="160" relative="1" as="geometry">
            <mxPoint x="689" y="372" as="sourcePoint" />
            <mxPoint x="688" y="312" as="targetPoint" />
          </mxGeometry>
        </mxCell>
        <mxCell id="dSqrFrBYC_2CAn7mRIEX-23" value="HTTP" style="text;html=1;strokeColor=none;fillColor=none;align=center;verticalAlign=middle;whiteSpace=wrap;rounded=0;fontFamily=Times New Roman;fontSize=16;" parent="1" vertex="1">
          <mxGeometry x="757" y="371" width="41" height="18" as="geometry" />
        </mxCell>
        <mxCell id="dSqrFrBYC_2CAn7mRIEX-24" value="" style="rounded=0;orthogonalLoop=1;jettySize=auto;html=1;endArrow=halfCircle;endFill=0;entryX=0.5;entryY=0.5;endSize=6;strokeWidth=1;sketch=0;entryDx=0;entryDy=0;exitX=0.674;exitY=0;exitDx=0;exitDy=0;exitPerimeter=0;" parent="1" source="NCQksfRdaHrPETZf62UO-1" target="dSqrFrBYC_2CAn7mRIEX-25" edge="1">
          <mxGeometry relative="1" as="geometry">
            <mxPoint x="416" y="369" as="sourcePoint" />
          </mxGeometry>
        </mxCell>
        <mxCell id="dSqrFrBYC_2CAn7mRIEX-25" value="" style="ellipse;whiteSpace=wrap;html=1;align=center;aspect=fixed;resizable=0;points=[];outlineConnect=0;sketch=0;flipV=1;" parent="1" vertex="1">
          <mxGeometry x="427.78" y="365" width="10" height="10" as="geometry" />
        </mxCell>
        <mxCell id="dSqrFrBYC_2CAn7mRIEX-26" value="" style="endArrow=none;html=1;rounded=0;exitX=0;exitY=0.75;exitDx=10;exitDy=0;exitPerimeter=0;" parent="1" source="NCQksfRdaHrPETZf62UO-6" target="dSqrFrBYC_2CAn7mRIEX-25" edge="1">
          <mxGeometry width="50" height="50" relative="1" as="geometry">
            <mxPoint x="529" y="360.5" as="sourcePoint" />
            <mxPoint x="449" y="361.5" as="targetPoint" />
          </mxGeometry>
        </mxCell>
        <mxCell id="dSqrFrBYC_2CAn7mRIEX-27" value="" style="endArrow=classic;dashed=1;endFill=1;endSize=12;html=1;rounded=0;entryX=1.001;entryY=0.25;entryDx=0;entryDy=0;entryPerimeter=0;exitX=0.674;exitY=0;exitDx=0;exitDy=0;exitPerimeter=0;" parent="1" source="NCQksfRdaHrPETZf62UO-1" target="NCQksfRdaHrPETZf62UO-14" edge="1">
          <mxGeometry width="160" relative="1" as="geometry">
            <mxPoint x="416" y="370" as="sourcePoint" />
            <mxPoint x="361" y="360.81" as="targetPoint" />
          </mxGeometry>
        </mxCell>
        <mxCell id="dSqrFrBYC_2CAn7mRIEX-28" value="TCP" style="text;html=1;strokeColor=none;fillColor=none;align=center;verticalAlign=middle;whiteSpace=wrap;rounded=0;fontFamily=Times New Roman;fontSize=16;" parent="1" vertex="1">
          <mxGeometry x="431" y="287" width="42" height="19" as="geometry" />
        </mxCell>
        <mxCell id="lOEOExCXbDV5vAd7fq1s-1" value="TCP" style="text;html=1;strokeColor=none;fillColor=none;align=center;verticalAlign=middle;whiteSpace=wrap;rounded=0;fontFamily=Times New Roman;fontSize=16;" vertex="1" parent="1">
          <mxGeometry x="437.78" y="370" width="42" height="19" as="geometry" />
        </mxCell>
      </root>
    </mxGraphModel>
  </diagram>
</mxfile>
